<svg width="82" height="78" viewBox="0 0 82 78" fill="none" xmlns="http://www.w3.org/2000/svg">
<mask id="path-1-inside-1_136_4446" fill="white">
<path d="M71.3328 44.3334C71.3328 62.927 56.2598 78 37.6664 78C19.073 78 4 62.927 4 44.3334C4 25.7399 19.073 10.6669 37.6664 10.6669C56.2598 10.6669 71.3328 25.7399 71.3328 44.3334ZM10.7333 44.3334C10.7333 59.2083 22.7916 71.2667 37.6664 71.2667C52.5411 71.2667 64.5995 59.2083 64.5995 44.3334C64.5995 29.4586 52.5411 17.4002 37.6664 17.4002C22.7916 17.4002 10.7333 29.4586 10.7333 44.3334Z"/>
</mask>
<path d="M71.3328 44.3334C71.3328 62.927 56.2598 78 37.6664 78C19.073 78 4 62.927 4 44.3334C4 25.7399 19.073 10.6669 37.6664 10.6669C56.2598 10.6669 71.3328 25.7399 71.3328 44.3334ZM10.7333 44.3334C10.7333 59.2083 22.7916 71.2667 37.6664 71.2667C52.5411 71.2667 64.5995 59.2083 64.5995 44.3334C64.5995 29.4586 52.5411 17.4002 37.6664 17.4002C22.7916 17.4002 10.7333 29.4586 10.7333 44.3334Z" stroke="url(#paint0_radial_136_4446)" stroke-width="64" mask="url(#path-1-inside-1_136_4446)"/>
<mask id="path-2-inside-2_136_4446" fill="white">
<path d="M81.3337 44.3334C81.3337 62.927 66.2608 78 47.6674 78C29.0739 78 14.001 62.927 14.001 44.3334C14.001 25.7399 29.0739 10.6669 47.6674 10.6669C66.2608 10.6669 81.3337 25.7399 81.3337 44.3334ZM20.7343 44.3334C20.7343 59.2083 32.7926 71.2667 47.6674 71.2667C62.5421 71.2667 74.6005 59.2083 74.6005 44.3334C74.6005 29.4586 62.5421 17.4002 47.6674 17.4002C32.7926 17.4002 20.7343 29.4586 20.7343 44.3334Z"/>
</mask>
<path d="M81.3337 44.3334C81.3337 62.927 66.2608 78 47.6674 78C29.0739 78 14.001 62.927 14.001 44.3334C14.001 25.7399 29.0739 10.6669 47.6674 10.6669C66.2608 10.6669 81.3337 25.7399 81.3337 44.3334ZM20.7343 44.3334C20.7343 59.2083 32.7926 71.2667 47.6674 71.2667C62.5421 71.2667 74.6005 59.2083 74.6005 44.3334C74.6005 29.4586 62.5421 17.4002 47.6674 17.4002C32.7926 17.4002 20.7343 29.4586 20.7343 44.3334Z" stroke="url(#paint1_radial_136_4446)" stroke-width="64" mask="url(#path-2-inside-2_136_4446)"/>
<path d="M17.3985 1.84015L22.6891 3.64391L17.3761 17.4414L2.7707 15.1439L3.85394 9.66013L10.6262 5.75014L17.3985 1.84015Z" fill="#A2845E"/>
<mask id="path-4-inside-3_136_4446" fill="white">
<path d="M66.8945 27.6258C63.7159 22.0651 59.017 17.5265 53.3493 14.5428C47.6817 11.5591 41.2805 10.2541 34.8972 10.781C28.5138 11.3078 22.4132 13.6446 17.3115 17.5172C12.2097 21.3897 8.31848 26.6373 6.09454 32.6439L12.4089 34.9818C14.1881 30.1765 17.301 25.9785 21.3825 22.8804C25.4639 19.7824 30.3444 17.9129 35.451 17.4915C40.5577 17.07 45.6786 18.114 50.2127 20.501C54.7469 22.8879 58.506 26.5188 61.0489 30.9673L66.8945 27.6258Z"/>
</mask>
<path d="M66.8945 27.6258C63.7159 22.0651 59.017 17.5265 53.3493 14.5428C47.6817 11.5591 41.2805 10.2541 34.8972 10.781C28.5138 11.3078 22.4132 13.6446 17.3115 17.5172C12.2097 21.3897 8.31848 26.6373 6.09454 32.6439L12.4089 34.9818C14.1881 30.1765 17.301 25.9785 21.3825 22.8804C25.4639 19.7824 30.3444 17.9129 35.451 17.4915C40.5577 17.07 45.6786 18.114 50.2127 20.501C54.7469 22.8879 58.506 26.5188 61.0489 30.9673L66.8945 27.6258Z" stroke="url(#paint2_radial_136_4446)" stroke-width="64" mask="url(#path-4-inside-3_136_4446)"/>
<defs>
<radialGradient id="paint0_radial_136_4446" cx="0" cy="0" r="1" gradientUnits="userSpaceOnUse" gradientTransform="translate(40.9997 44.3334) rotate(60.9455) scale(42.8983 29.8126)">
<stop offset="0.521979" stop-color="#FFF8E1"/>
<stop offset="1" stop-color="#D9B63E"/>
</radialGradient>
<radialGradient id="paint1_radial_136_4446" cx="0" cy="0" r="1" gradientUnits="userSpaceOnUse" gradientTransform="translate(51.0007 44.3334) rotate(60.9455) scale(42.8983 29.8126)">
<stop offset="0.521979" stop-color="#FFF8E1"/>
<stop offset="1" stop-color="#5F5F5F"/>
</radialGradient>
<radialGradient id="paint2_radial_136_4446" cx="0" cy="0" r="1" gradientUnits="userSpaceOnUse" gradientTransform="translate(40.9997 44.3334) rotate(60.9455) scale(42.8983 29.8126)">
<stop offset="0.521979" stop-color="#FFF8E1"/>
<stop offset="1" stop-color="#D9B63E"/>
</radialGradient>
</defs>
</svg>
